<svg width="877" height="498" viewBox="0 0 877 498" fill="none" xmlns="http://www.w3.org/2000/svg">
<path d="M562.551 198.949C1051.1 244.905 1892.33 436.021 478.428 436.021C-317.641 469.212 640.221 330.435 0 198.949C149.65 119.802 817.322 151.983 393.164 10.018C261.207 -34.1482 1410.87 74.7536 562.551 198.949Z" fill="url(#paint0_linear_98_80)" fill-opacity="0.6"/>
<g filter="url(#filter0_d_98_80)">
<circle cx="412.5" cy="136.5" r="97.5" fill="#E7DCFF"/>
<circle cx="414.5" cy="140.5" r="97.5" fill="#121212"/>
<path d="M401.659 104.005L351.832 123.124L351.92 151.273L405.125 140.776L401.659 104.005Z" fill="url(#paint1_linear_98_80)"/>
<ellipse cx="437" cy="118" rx="43" ry="50" fill="#323232"/>
<ellipse cx="338.1" cy="133.554" rx="25" ry="44.4343" transform="rotate(-3.90783 338.1 133.554)" fill="#323232"/>
<ellipse cx="431.5" cy="119.5" rx="30.5" ry="42.5" fill="#ECF0FF"/>
<ellipse cx="427.5" cy="124.5" rx="26.5" ry="37.5" fill="black"/>
<ellipse cx="333.561" cy="133.983" rx="16.9635" ry="38.3289" transform="rotate(-2.07233 333.561 133.983)" fill="#ECF0FF"/>
<ellipse cx="333.838" cy="140.222" rx="12.6974" ry="31.7838" transform="rotate(-2.07233 333.838 140.222)" fill="black"/>
<path d="M476 109L515 130L512.5 158L470 145.443L476 109Z" fill="url(#paint2_linear_98_80)"/>
<path d="M512 202C512 255.848 565.5 212.5 414.5 299.5C339.5 278 293.501 280.5 345 241C291.501 202 360.653 189 414.5 189C468.348 189 512 148.152 512 202Z" fill="#332B62"/>
<path d="M435.046 188.969C441.672 192.374 446.816 196.525 451.334 202.333C453.898 205.63 454.213 210.633 455.696 214.444C456.924 217.604 456.415 222.049 456.345 225.395C456.223 231.265 453.468 237.249 450.916 242.425C448.904 246.507 446.372 250.382 444.652 254.56C443.057 258.431 440.604 261.886 439.176 265.812C438.103 268.763 438.525 272.29 437.761 275.348C436.823 279.099 436.299 282.813 436.299 286.693" stroke="#A646E0" stroke-width="3" stroke-linecap="round"/>
<path d="M472.26 180.379C479.032 182.342 486.44 189.054 488.935 195.804C490.906 201.138 488.625 208.747 486.221 213.557C484.276 217.446 481.603 220.747 479.628 224.587C477.478 228.769 474.035 232.77 473.811 237.686C473.699 240.154 472.87 243.039 473.51 245.528C474.228 248.322 475.552 250.732 476.828 253.284C478.139 255.907 480.868 258.945 483.506 260.264" stroke="#A646E0" stroke-width="3" stroke-linecap="round"/>
<path d="M397.092 193.084C396.25 198.979 394.238 204.683 392.381 210.327C390.718 215.385 389.634 220.584 387.831 225.603C386.658 228.867 385.311 232.18 383.6 235.208C383.315 235.712 382.638 237.139 383.92 236.626C386.288 235.679 389.296 235.894 391.787 235.894C395.884 235.894 401.56 234.837 405.485 236.146C408.727 237.226 411.425 241.355 412.323 244.447C413.641 248.986 413.558 253.723 413.558 258.397C413.558 262.231 411.619 265.477 409.945 268.825C407.655 273.404 409.45 279.813 411.111 284.216C412.467 287.809 414.528 291.13 415.433 294.896C415.707 296.033 416.44 297.322 416.44 298.463" stroke="#A646E0" stroke-width="3" stroke-linecap="round"/>
<path d="M355.268 195.855C349.436 200.409 344.565 205.869 340.048 211.677C338.411 213.781 337.68 216.458 337.68 219.118C337.68 222.797 339.023 227.725 341.213 230.768C343.072 233.35 346.284 235.402 348.823 237.269C352.424 239.917 355.76 244.264 357.091 248.562C357.972 251.409 357.508 253.949 355.851 256.435C353.148 260.489 349.598 264.756 345.441 267.371C341.112 270.094 334.874 272.971 329.563 272.971" stroke="#A646E0" stroke-width="3" stroke-linecap="round"/>
<path d="M412.297 251.892C427.496 251.892 441.304 242.733 453.813 235.13C459.664 231.573 465.145 227.381 471.226 224.209C476.396 221.511 481.482 218.619 486.685 216.018C488.666 215.027 490.856 214.13 493.014 213.559C496.576 212.616 500.108 210.641 503.447 209.11C504.467 208.643 506.945 208.033 507.66 207.14C508.256 206.395 509.973 205.338 510.915 205.024" stroke="#6E46E0" stroke-width="3" stroke-linecap="round"/>
<path d="M412.144 253.03C406.7 253.03 401.257 253.03 395.813 253.03C390.224 253.03 384.61 252.176 379.051 251.62C371.675 250.882 363.704 249.673 356.651 247.322C355.635 246.984 354.068 246.654 353.351 245.758C352.49 244.682 349.954 244.78 348.709 244.125C347.915 243.707 347.274 243.117 346.526 242.681C346.204 242.493 344.368 241.58 344.686 241.58" stroke="#6E46E0" stroke-width="3" stroke-linecap="round"/>
</g>
<g filter="url(#filter1_d_98_80)">
<path d="M277.433 322.845C279.092 310.867 289.405 301.994 301.496 302.141L450.916 303.946C466.425 304.133 477.685 318.762 473.898 333.803L443.902 452.952C440.181 467.733 423.804 475.347 410.105 468.664L282.544 406.437C273.215 401.887 267.869 391.855 269.294 381.573L277.433 322.845Z" fill="#B64040"/>
</g>
<g filter="url(#filter2_i_98_80)">
<path d="M275.828 326.206C277.245 314.115 287.49 305 299.664 305H432.541C448.764 305 460.314 320.761 455.426 336.23L426.451 427.946C422.336 440.973 408.191 447.942 395.354 443.268L285.396 403.229C274.943 399.423 268.476 388.933 269.771 377.884L275.828 326.206Z" fill="#C04343"/>
</g>
<g filter="url(#filter3_d_98_80)">
<path d="M395.024 379.237L341.098 329.474L321.488 401.263L395.024 379.237Z" fill="white"/>
</g>
<g filter="url(#filter4_i_98_80)">
<path d="M469 167C469 167 520.519 181.103 554.386 182.665C599.668 184.752 669.396 167 669.396 167L733 375.861C733 375.861 655.951 386.82 608.406 401.098C566.412 413.71 503.851 442 503.851 442L469 167Z" fill="#514F4F"/>
</g>
<g filter="url(#filter5_d_98_80)">
<path d="M516.038 298.547L560.332 213.379L587.476 362.731L516.038 298.547Z" fill="url(#paint3_linear_98_80)"/>
</g>
<path d="M533.133 297.535L573.224 212.981L614.173 360.924L533.133 297.535Z" fill="#514F4F"/>
<g filter="url(#filter6_d_98_80)">
<path d="M690.016 270.28L630.216 213.819L671.075 357.37L690.016 270.28Z" fill="url(#paint4_linear_98_80)"/>
</g>
<path d="M679.187 276.648L622.19 218.945L654.077 367.116L679.187 276.648Z" fill="#514F4F"/>
<g filter="url(#filter7_d_98_80)">
<path d="M611.02 204.421L623.218 221.826C623.218 221.826 616.281 275.654 614.069 306.241C611.857 336.827 623.218 384.563 623.218 384.563L601.871 370.639C601.871 370.639 598.298 319.986 601.871 287.53C605.444 255.074 611.02 204.421 611.02 204.421Z" fill="url(#paint5_linear_98_80)"/>
</g>
<defs>
<filter id="filter0_d_98_80" x="300.13" y="33" width="231.072" height="280.964" filterUnits="userSpaceOnUse" color-interpolation-filters="sRGB">
<feFlood flood-opacity="0" result="BackgroundImageFix"/>
<feColorMatrix in="SourceAlpha" type="matrix" values="0 0 0 0 0 0 0 0 0 0 0 0 0 0 0 0 0 0 127 0" result="hardAlpha"/>
<feOffset dy="4"/>
<feGaussianBlur stdDeviation="5"/>
<feComposite in2="hardAlpha" operator="out"/>
<feColorMatrix type="matrix" values="0 0 0 0 0 0 0 0 0 0 0 0 0 0 0 0 0 0 0.25 0"/>
<feBlend mode="normal" in2="BackgroundImageFix" result="effect1_dropShadow_98_80"/>
<feBlend mode="normal" in="SourceGraphic" in2="effect1_dropShadow_98_80" result="shape"/>
</filter>
<filter id="filter1_d_98_80" x="247.066" y="284.139" width="249.57" height="212.968" filterUnits="userSpaceOnUse" color-interpolation-filters="sRGB">
<feFlood flood-opacity="0" result="BackgroundImageFix"/>
<feColorMatrix in="SourceAlpha" type="matrix" values="0 0 0 0 0 0 0 0 0 0 0 0 0 0 0 0 0 0 127 0" result="hardAlpha"/>
<feOffset dy="4"/>
<feGaussianBlur stdDeviation="11"/>
<feComposite in2="hardAlpha" operator="out"/>
<feColorMatrix type="matrix" values="0 0 0 0 0 0 0 0 0 0 0 0 0 0 0 0 0 0 0.25 0"/>
<feBlend mode="normal" in2="BackgroundImageFix" result="effect1_dropShadow_98_80"/>
<feBlend mode="normal" in="SourceGraphic" in2="effect1_dropShadow_98_80" result="shape"/>
</filter>
<filter id="filter2_i_98_80" x="269.606" y="305" width="193.952" height="143.724" filterUnits="userSpaceOnUse" color-interpolation-filters="sRGB">
<feFlood flood-opacity="0" result="BackgroundImageFix"/>
<feBlend mode="normal" in="SourceGraphic" in2="BackgroundImageFix" result="shape"/>
<feColorMatrix in="SourceAlpha" type="matrix" values="0 0 0 0 0 0 0 0 0 0 0 0 0 0 0 0 0 0 127 0" result="hardAlpha"/>
<feOffset dx="7" dy="4"/>
<feGaussianBlur stdDeviation="8.5"/>
<feComposite in2="hardAlpha" operator="arithmetic" k2="-1" k3="1"/>
<feColorMatrix type="matrix" values="0 0 0 0 0 0 0 0 0 0 0 0 0 0 0 0 0 0 0.25 0"/>
<feBlend mode="normal" in2="shape" result="effect1_innerShadow_98_80"/>
</filter>
<filter id="filter3_d_98_80" x="308.488" y="316.474" width="99.5366" height="97.7895" filterUnits="userSpaceOnUse" color-interpolation-filters="sRGB">
<feFlood flood-opacity="0" result="BackgroundImageFix"/>
<feColorMatrix in="SourceAlpha" type="matrix" values="0 0 0 0 0 0 0 0 0 0 0 0 0 0 0 0 0 0 127 0" result="hardAlpha"/>
<feOffset/>
<feGaussianBlur stdDeviation="6.5"/>
<feComposite in2="hardAlpha" operator="out"/>
<feColorMatrix type="matrix" values="0 0 0 0 1 0 0 0 0 1 0 0 0 0 1 0 0 0 0.5 0"/>
<feBlend mode="normal" in2="BackgroundImageFix" result="effect1_dropShadow_98_80"/>
<feBlend mode="normal" in="SourceGraphic" in2="effect1_dropShadow_98_80" result="shape"/>
</filter>
<filter id="filter4_i_98_80" x="469" y="167" width="293" height="279" filterUnits="userSpaceOnUse" color-interpolation-filters="sRGB">
<feFlood flood-opacity="0" result="BackgroundImageFix"/>
<feBlend mode="normal" in="SourceGraphic" in2="BackgroundImageFix" result="shape"/>
<feColorMatrix in="SourceAlpha" type="matrix" values="0 0 0 0 0 0 0 0 0 0 0 0 0 0 0 0 0 0 127 0" result="hardAlpha"/>
<feOffset dx="29" dy="4"/>
<feGaussianBlur stdDeviation="15.5"/>
<feComposite in2="hardAlpha" operator="arithmetic" k2="-1" k3="1"/>
<feColorMatrix type="matrix" values="0 0 0 0 0 0 0 0 0 0 0 0 0 0 0 0 0 0 0.11 0"/>
<feBlend mode="normal" in2="shape" result="effect1_innerShadow_98_80"/>
</filter>
<filter id="filter5_d_98_80" x="494.038" y="203.379" width="99.4385" height="177.353" filterUnits="userSpaceOnUse" color-interpolation-filters="sRGB">
<feFlood flood-opacity="0" result="BackgroundImageFix"/>
<feColorMatrix in="SourceAlpha" type="matrix" values="0 0 0 0 0 0 0 0 0 0 0 0 0 0 0 0 0 0 127 0" result="hardAlpha"/>
<feOffset dx="-8" dy="4"/>
<feGaussianBlur stdDeviation="7"/>
<feComposite in2="hardAlpha" operator="out"/>
<feColorMatrix type="matrix" values="0 0 0 0 1 0 0 0 0 0.843137 0 0 0 0 0 0 0 0 0.25 0"/>
<feBlend mode="normal" in2="BackgroundImageFix" result="effect1_dropShadow_98_80"/>
<feBlend mode="normal" in="SourceGraphic" in2="effect1_dropShadow_98_80" result="shape"/>
</filter>
<filter id="filter6_d_98_80" x="627.216" y="203.819" width="87.7998" height="171.551" filterUnits="userSpaceOnUse" color-interpolation-filters="sRGB">
<feFlood flood-opacity="0" result="BackgroundImageFix"/>
<feColorMatrix in="SourceAlpha" type="matrix" values="0 0 0 0 0 0 0 0 0 0 0 0 0 0 0 0 0 0 127 0" result="hardAlpha"/>
<feOffset dx="11" dy="4"/>
<feGaussianBlur stdDeviation="7"/>
<feComposite in2="hardAlpha" operator="out"/>
<feColorMatrix type="matrix" values="0 0 0 0 1 0 0 0 0 0.843137 0 0 0 0 0 0 0 0 0.25 0"/>
<feBlend mode="normal" in2="BackgroundImageFix" result="effect1_dropShadow_98_80"/>
<feBlend mode="normal" in="SourceGraphic" in2="effect1_dropShadow_98_80" result="shape"/>
</filter>
<filter id="filter7_d_98_80" x="586.283" y="194.421" width="50.9346" height="208.142" filterUnits="userSpaceOnUse" color-interpolation-filters="sRGB">
<feFlood flood-opacity="0" result="BackgroundImageFix"/>
<feColorMatrix in="SourceAlpha" type="matrix" values="0 0 0 0 0 0 0 0 0 0 0 0 0 0 0 0 0 0 127 0" result="hardAlpha"/>
<feOffset dy="4"/>
<feGaussianBlur stdDeviation="7"/>
<feComposite in2="hardAlpha" operator="out"/>
<feColorMatrix type="matrix" values="0 0 0 0 1 0 0 0 0 0.843137 0 0 0 0 0 0 0 0 0.25 0"/>
<feBlend mode="normal" in2="BackgroundImageFix" result="effect1_dropShadow_98_80"/>
<feBlend mode="normal" in="SourceGraphic" in2="effect1_dropShadow_98_80" result="shape"/>
</filter>
<linearGradient id="paint0_linear_98_80" x1="539.273" y1="-141.893" x2="539.273" y2="552.557" gradientUnits="userSpaceOnUse">
<stop stop-color="#A800B7"/>
<stop offset="1" stop-color="#002688" stop-opacity="0"/>
</linearGradient>
<linearGradient id="paint1_linear_98_80" x1="374.859" y1="106.489" x2="378.778" y2="148.784" gradientUnits="userSpaceOnUse">
<stop stop-color="#333333"/>
<stop offset="1" stop-color="#1D1D1D"/>
</linearGradient>
<linearGradient id="paint2_linear_98_80" x1="497.65" y1="112.536" x2="490.804" y2="154.457" gradientUnits="userSpaceOnUse">
<stop stop-color="#333333"/>
<stop offset="1" stop-color="#1D1D1D"/>
</linearGradient>
<linearGradient id="paint3_linear_98_80" x1="516.038" y1="298.547" x2="593.187" y2="284.526" gradientUnits="userSpaceOnUse">
<stop stop-color="#FFFF00"/>
<stop offset="1" stop-color="#FFD700"/>
</linearGradient>
<linearGradient id="paint4_linear_98_80" x1="690.016" y1="270.28" x2="636.079" y2="285.632" gradientUnits="userSpaceOnUse">
<stop stop-color="#FFFF00"/>
<stop offset="1" stop-color="#FFD700"/>
</linearGradient>
<linearGradient id="paint5_linear_98_80" x1="611.75" y1="204.421" x2="611.75" y2="384.563" gradientUnits="userSpaceOnUse">
<stop stop-color="#FFFF00"/>
<stop offset="1" stop-color="#FFD700"/>
</linearGradient>
</defs>
</svg>
