<svg width="239" height="251" viewBox="0 0 239 251" fill="none" xmlns="http://www.w3.org/2000/svg">
<g filter="url(#filter0_i_84_61)">
<g filter="url(#filter1_i_84_61)">
<path d="M3 0C3 0 49.0549 12.6161 79.33 14.0127C119.809 15.88 182.142 0 182.142 0L239 186.835C239 186.835 170.123 196.639 127.62 209.411C90.0804 220.693 34.1551 246 34.1551 246L3 0Z" fill="#FFD700"/>
</g>
<g filter="url(#filter2_i_84_61)">
<path d="M0 5C0 5 46.0549 17.6161 76.33 19.0127C116.809 20.88 179.142 5 179.142 5L236 191.835C236 191.835 167.123 201.639 124.62 214.411C87.0804 225.693 31.1551 251 31.1551 251L0 5Z" fill="#514F4F"/>
</g>
<g filter="url(#filter3_d_84_61)">
<path d="M42.0494 122.675L81.6456 46.4881L105.911 180.091L42.0494 122.675Z" fill="url(#paint0_linear_84_61)"/>
</g>
<path d="M57.3308 121.769L93.1696 46.132L129.776 178.474L57.3308 121.769Z" fill="#514F4F"/>
<g filter="url(#filter4_d_84_61)">
<path d="M197.575 97.3884L144.117 46.8815L180.642 175.294L197.575 97.3884Z" fill="url(#paint1_linear_84_61)"/>
</g>
<path d="M187.895 103.086L136.943 51.467L165.447 184.013L187.895 103.086Z" fill="#514F4F"/>
<g filter="url(#filter5_d_84_61)">
<path d="M126.957 38.4746L137.861 54.0442C137.861 54.0442 131.66 102.195 129.683 129.557C127.706 156.918 137.861 199.62 137.861 199.62L118.779 187.164C118.779 187.164 115.585 141.853 118.779 112.82C121.973 83.786 126.957 38.4746 126.957 38.4746Z" fill="url(#paint2_linear_84_61)"/>
</g>
</g>
<defs>
<filter id="filter0_i_84_61" x="0" y="0" width="257" height="255" filterUnits="userSpaceOnUse" color-interpolation-filters="sRGB">
<feFlood flood-opacity="0" result="BackgroundImageFix"/>
<feBlend mode="normal" in="SourceGraphic" in2="BackgroundImageFix" result="shape"/>
<feColorMatrix in="SourceAlpha" type="matrix" values="0 0 0 0 0 0 0 0 0 0 0 0 0 0 0 0 0 0 127 0" result="hardAlpha"/>
<feOffset dx="18" dy="4"/>
<feGaussianBlur stdDeviation="9"/>
<feComposite in2="hardAlpha" operator="arithmetic" k2="-1" k3="1"/>
<feColorMatrix type="matrix" values="0 0 0 0 0 0 0 0 0 0 0 0 0 0 0 0 0 0 0.1 0"/>
<feBlend mode="normal" in2="shape" result="effect1_innerShadow_84_61"/>
</filter>
<filter id="filter1_i_84_61" x="3" y="0" width="265" height="250" filterUnits="userSpaceOnUse" color-interpolation-filters="sRGB">
<feFlood flood-opacity="0" result="BackgroundImageFix"/>
<feBlend mode="normal" in="SourceGraphic" in2="BackgroundImageFix" result="shape"/>
<feColorMatrix in="SourceAlpha" type="matrix" values="0 0 0 0 0 0 0 0 0 0 0 0 0 0 0 0 0 0 127 0" result="hardAlpha"/>
<feOffset dx="29" dy="4"/>
<feGaussianBlur stdDeviation="15.5"/>
<feComposite in2="hardAlpha" operator="arithmetic" k2="-1" k3="1"/>
<feColorMatrix type="matrix" values="0 0 0 0 0 0 0 0 0 0 0 0 0 0 0 0 0 0 0.11 0"/>
<feBlend mode="normal" in2="shape" result="effect1_innerShadow_84_61"/>
</filter>
<filter id="filter2_i_84_61" x="0" y="5" width="265" height="250" filterUnits="userSpaceOnUse" color-interpolation-filters="sRGB">
<feFlood flood-opacity="0" result="BackgroundImageFix"/>
<feBlend mode="normal" in="SourceGraphic" in2="BackgroundImageFix" result="shape"/>
<feColorMatrix in="SourceAlpha" type="matrix" values="0 0 0 0 0 0 0 0 0 0 0 0 0 0 0 0 0 0 127 0" result="hardAlpha"/>
<feOffset dx="29" dy="4"/>
<feGaussianBlur stdDeviation="15.5"/>
<feComposite in2="hardAlpha" operator="arithmetic" k2="-1" k3="1"/>
<feColorMatrix type="matrix" values="0 0 0 0 0 0 0 0 0 0 0 0 0 0 0 0 0 0 0.11 0"/>
<feBlend mode="normal" in2="shape" result="effect1_innerShadow_84_61"/>
</filter>
<filter id="filter3_d_84_61" x="20.0493" y="36.488" width="91.8618" height="161.603" filterUnits="userSpaceOnUse" color-interpolation-filters="sRGB">
<feFlood flood-opacity="0" result="BackgroundImageFix"/>
<feColorMatrix in="SourceAlpha" type="matrix" values="0 0 0 0 0 0 0 0 0 0 0 0 0 0 0 0 0 0 127 0" result="hardAlpha"/>
<feOffset dx="-8" dy="4"/>
<feGaussianBlur stdDeviation="7"/>
<feComposite in2="hardAlpha" operator="out"/>
<feColorMatrix type="matrix" values="0 0 0 0 1 0 0 0 0 0.843137 0 0 0 0 0 0 0 0 0.25 0"/>
<feBlend mode="normal" in2="BackgroundImageFix" result="effect1_dropShadow_84_61"/>
<feBlend mode="normal" in="SourceGraphic" in2="effect1_dropShadow_84_61" result="shape"/>
</filter>
<filter id="filter4_d_84_61" x="141.117" y="36.8816" width="81.4575" height="156.413" filterUnits="userSpaceOnUse" color-interpolation-filters="sRGB">
<feFlood flood-opacity="0" result="BackgroundImageFix"/>
<feColorMatrix in="SourceAlpha" type="matrix" values="0 0 0 0 0 0 0 0 0 0 0 0 0 0 0 0 0 0 127 0" result="hardAlpha"/>
<feOffset dx="11" dy="4"/>
<feGaussianBlur stdDeviation="7"/>
<feComposite in2="hardAlpha" operator="out"/>
<feColorMatrix type="matrix" values="0 0 0 0 1 0 0 0 0 0.843137 0 0 0 0 0 0 0 0 0.25 0"/>
<feBlend mode="normal" in2="BackgroundImageFix" result="effect1_dropShadow_84_61"/>
<feBlend mode="normal" in="SourceGraphic" in2="effect1_dropShadow_84_61" result="shape"/>
</filter>
<filter id="filter5_d_84_61" x="103.359" y="28.4746" width="48.502" height="189.146" filterUnits="userSpaceOnUse" color-interpolation-filters="sRGB">
<feFlood flood-opacity="0" result="BackgroundImageFix"/>
<feColorMatrix in="SourceAlpha" type="matrix" values="0 0 0 0 0 0 0 0 0 0 0 0 0 0 0 0 0 0 127 0" result="hardAlpha"/>
<feOffset dy="4"/>
<feGaussianBlur stdDeviation="7"/>
<feComposite in2="hardAlpha" operator="out"/>
<feColorMatrix type="matrix" values="0 0 0 0 1 0 0 0 0 0.843137 0 0 0 0 0 0 0 0 0.25 0"/>
<feBlend mode="normal" in2="BackgroundImageFix" result="effect1_dropShadow_84_61"/>
<feBlend mode="normal" in="SourceGraphic" in2="effect1_dropShadow_84_61" result="shape"/>
</filter>
<linearGradient id="paint0_linear_84_61" x1="42.0494" y1="122.675" x2="111.019" y2="110.149" gradientUnits="userSpaceOnUse">
<stop stop-color="#FFFF00"/>
<stop offset="1" stop-color="#FFD700"/>
</linearGradient>
<linearGradient id="paint1_linear_84_61" x1="197.575" y1="97.3884" x2="149.354" y2="111.104" gradientUnits="userSpaceOnUse">
<stop stop-color="#FFFF00"/>
<stop offset="1" stop-color="#FFD700"/>
</linearGradient>
<linearGradient id="paint2_linear_84_61" x1="127.61" y1="38.4746" x2="127.61" y2="199.62" gradientUnits="userSpaceOnUse">
<stop stop-color="#FFFF00"/>
<stop offset="1" stop-color="#FFD700"/>
</linearGradient>
</defs>
</svg>
