<svg width="230" height="281" viewBox="0 0 230 281" fill="none" xmlns="http://www.w3.org/2000/svg">
<g filter="url(#filter0_d_84_47)">
<circle cx="110.5" cy="103.5" r="97.5" fill="#E7DCFF"/>
<circle cx="112.5" cy="107.5" r="97.5" fill="#121212"/>
<path d="M99.6586 71.0054L49.8318 90.1241L49.9196 118.273L103.125 107.776L99.6586 71.0054Z" fill="url(#paint0_linear_84_47)"/>
<ellipse cx="135" cy="85" rx="43" ry="50" fill="#323232"/>
<ellipse cx="36.1" cy="100.554" rx="25" ry="44.4343" transform="rotate(-3.90783 36.1 100.554)" fill="#323232"/>
<ellipse cx="129.5" cy="86.5" rx="30.5" ry="42.5" fill="#ECF0FF"/>
<ellipse cx="125.5" cy="91.5" rx="26.5" ry="37.5" fill="black"/>
<ellipse cx="31.5611" cy="100.983" rx="16.9635" ry="38.3289" transform="rotate(-2.07233 31.5611 100.983)" fill="#ECF0FF"/>
<ellipse cx="31.8384" cy="107.222" rx="12.6974" ry="31.7838" transform="rotate(-2.07233 31.8384 107.222)" fill="black"/>
<path d="M174 76L213 97L210.5 125L168 112.443L174 76Z" fill="url(#paint1_linear_84_47)"/>
<path d="M210 169C210 222.848 263.5 179.5 112.5 266.5C37.5005 245 -8.49948 247.5 43.0003 208C-10.4995 169 58.6525 156 112.5 156C166.348 156 210 115.152 210 169Z" fill="#332B62"/>
<path d="M133.046 155.969C139.672 159.374 144.816 163.525 149.334 169.333C151.898 172.63 152.213 177.633 153.696 181.444C154.924 184.604 154.415 189.049 154.345 192.395C154.223 198.265 151.468 204.249 148.916 209.425C146.904 213.507 144.372 217.382 142.652 221.56C141.057 225.431 138.604 228.886 137.176 232.812C136.103 235.763 136.525 239.29 135.761 242.348C134.823 246.099 134.299 249.813 134.299 253.693" stroke="#A646E0" stroke-width="3" stroke-linecap="round"/>
<path d="M170.26 147.379C177.032 149.342 184.44 156.054 186.935 162.804C188.906 168.138 186.625 175.747 184.221 180.557C182.276 184.446 179.603 187.747 177.628 191.587C175.478 195.769 172.035 199.77 171.811 204.686C171.699 207.154 170.87 210.039 171.51 212.528C172.228 215.322 173.552 217.732 174.828 220.284C176.139 222.907 178.868 225.945 181.506 227.264" stroke="#A646E0" stroke-width="3" stroke-linecap="round"/>
<path d="M95.0925 160.084C94.2502 165.979 92.2378 171.683 90.3815 177.327C88.7177 182.385 87.6343 187.584 85.8305 192.603C84.6576 195.867 83.3111 199.18 81.5998 202.208C81.3148 202.712 80.638 204.139 81.92 203.626C84.2876 202.679 87.2956 202.894 89.7869 202.894C93.8844 202.894 99.5597 201.837 103.485 203.146C106.727 204.226 109.425 208.355 110.323 211.447C111.641 215.986 111.558 220.723 111.558 225.397C111.558 229.231 109.619 232.477 107.945 235.825C105.655 240.404 107.45 246.813 109.111 251.216C110.467 254.809 112.528 258.13 113.433 261.896C113.707 263.033 114.44 264.322 114.44 265.463" stroke="#A646E0" stroke-width="3" stroke-linecap="round"/>
<path d="M53.2681 162.855C47.4363 167.409 42.5648 172.869 38.048 178.677C36.4111 180.781 35.6804 183.458 35.6804 186.118C35.6804 189.797 37.0225 194.725 39.213 197.768C41.0719 200.35 44.2838 202.402 46.823 204.269C50.4241 206.917 53.7604 211.264 55.0907 215.562C55.972 218.409 55.508 220.949 53.8506 223.435C51.1479 227.489 47.5977 231.756 43.4408 234.371C39.112 237.094 32.874 239.971 27.563 239.971" stroke="#A646E0" stroke-width="3" stroke-linecap="round"/>
<path d="M110.297 218.892C125.496 218.892 139.304 209.733 151.813 202.13C157.664 198.573 163.145 194.381 169.226 191.209C174.396 188.511 179.482 185.619 184.685 183.018C186.666 182.027 188.856 181.13 191.014 180.559C194.576 179.616 198.108 177.641 201.447 176.11C202.467 175.643 204.945 175.033 205.66 174.14C206.256 173.395 207.973 172.338 208.915 172.024" stroke="#6E46E0" stroke-width="3" stroke-linecap="round"/>
<path d="M110.144 220.03C104.7 220.03 99.2566 220.03 93.8128 220.03C88.224 220.03 82.6101 219.176 77.0514 218.62C69.6754 217.882 61.7036 216.673 54.6514 214.322C53.6353 213.984 52.0678 213.654 51.3507 212.758C50.4902 211.682 47.9536 211.78 46.7091 211.125C45.9153 210.707 45.2741 210.117 44.5258 209.681C44.2041 209.493 42.3679 208.58 42.6864 208.58" stroke="#6E46E0" stroke-width="3" stroke-linecap="round"/>
</g>
<defs>
<filter id="filter0_d_84_47" x="-1.87012" y="0" width="231.072" height="280.964" filterUnits="userSpaceOnUse" color-interpolation-filters="sRGB">
<feFlood flood-opacity="0" result="BackgroundImageFix"/>
<feColorMatrix in="SourceAlpha" type="matrix" values="0 0 0 0 0 0 0 0 0 0 0 0 0 0 0 0 0 0 127 0" result="hardAlpha"/>
<feOffset dy="4"/>
<feGaussianBlur stdDeviation="5"/>
<feComposite in2="hardAlpha" operator="out"/>
<feColorMatrix type="matrix" values="0 0 0 0 0 0 0 0 0 0 0 0 0 0 0 0 0 0 0.25 0"/>
<feBlend mode="normal" in2="BackgroundImageFix" result="effect1_dropShadow_84_47"/>
<feBlend mode="normal" in="SourceGraphic" in2="effect1_dropShadow_84_47" result="shape"/>
</filter>
<linearGradient id="paint0_linear_84_47" x1="72.8585" y1="73.4889" x2="76.7779" y2="115.784" gradientUnits="userSpaceOnUse">
<stop stop-color="#333333"/>
<stop offset="1" stop-color="#1D1D1D"/>
</linearGradient>
<linearGradient id="paint1_linear_84_47" x1="195.65" y1="79.5357" x2="188.804" y2="121.457" gradientUnits="userSpaceOnUse">
<stop stop-color="#333333"/>
<stop offset="1" stop-color="#1D1D1D"/>
</linearGradient>
</defs>
</svg>
