<svg width="826" height="733" viewBox="0 0 826 733" fill="none" xmlns="http://www.w3.org/2000/svg">
<g clip-path="url(#clip0_1_10)">
<path d="M94.1452 409.324L455.512 733L826.001 417.293L464.634 93.6173L94.1452 409.324Z" fill="#F8F8FF"/>
<path d="M94.1452 409.324L455.512 733L826.001 417.293L464.634 93.6173L94.1452 409.324Z" fill="#253439"/>
<path d="M94.1452 409.324L455.512 733L826.001 417.293L464.634 93.6173L94.1452 409.324Z" fill="black"/>
<path d="M94.1452 409.324L455.512 733L826.001 417.293L464.634 93.6173L94.1452 409.324Z" fill="#242424"/>
<path d="M93.0003 362.309L454.367 685.985L824.856 370.278L463.489 46.6021L93.0003 362.309Z" fill="#F8F8FF"/>
<path d="M93.0003 362.309L454.367 685.985L824.856 370.278L463.489 46.6021L93.0003 362.309Z" fill="#253439"/>
<path d="M93.0003 362.309L454.367 685.985L824.856 370.278L463.489 46.6021L93.0003 362.309Z" fill="#253439"/>
<path d="M93.0003 362.309L454.367 685.985L824.856 370.278L463.489 46.6021L93.0003 362.309Z" fill="#F8F8FF"/>
<path d="M93.4721 315.706L454.839 639.382L825.328 323.675L463.961 -0.00069381L93.4721 315.706Z" fill="#292929"/>
<path d="M203.937 310.348L456.217 536.316L714.866 315.912L462.585 89.9445L203.937 310.348Z" fill="#F8F8FF"/>
<path d="M224.675 310.806L456.101 518.094L693.369 315.91L461.943 108.622L224.675 310.806Z" fill="#393939"/>
<path d="M417.035 253.262L459.682 291.461L503.812 253.857L461.165 215.657L417.035 253.262Z" fill="#F8F8FF"/>
<path d="M355.215 223.778L377.33 243.586L483.12 153.439L461.005 133.631L355.215 223.778Z" fill="#F8F8FF"/>
<path d="M438.789 153.439L460.904 133.631L596.135 248.866L574.021 268.674L438.789 153.439Z" fill="#F8F8FF"/>
<path d="M594.99 251.471L572.876 231.663L471.746 317.839L493.86 337.647L594.99 251.471Z" fill="#F8F8FF"/>
<path d="M391.845 223.66H355.205V460.737H391.845V223.66Z" fill="#F8F8FF"/>
<path d="M494.841 300.685L471.995 319.849L545.718 386.931L568.564 367.767L494.841 300.685Z" fill="#F8F8FF"/>
<path d="M277.033 476.019L335.356 528.259L392.029 479.966L333.706 427.726L277.033 476.019Z" fill="#292929"/>
<path d="M81.3724 540.265L76.0708 476.149L0.829651 468.123C0.829651 468.123 53.0002 451 60.7513 417.061C68.5024 383.123 120.673 366 120.673 366L201.215 438.142C177.476 458.372 151.5 452.76 140.5 489.88C129.5 527 104.434 520.613 81.3724 540.265Z" fill="#292929"/>
</g>
<defs>
<clipPath id="clip0_1_10">
<rect width="826" height="733" fill="white"/>
</clipPath>
</defs>
</svg>
