<svg width="349" height="326" viewBox="0 0 349 326" fill="none" xmlns="http://www.w3.org/2000/svg">
<g filter="url(#filter0_d_84_145)">
<ellipse cx="106.013" cy="68.9359" rx="64.7773" ry="62.5" fill="#E7DCFF"/>
<ellipse cx="107.342" cy="71.5" rx="64.7773" ry="62.5" fill="#A7A7A7"/>
<g filter="url(#filter1_d_84_145)">
<ellipse cx="118.636" cy="58.0385" rx="20.2637" ry="27.2436" fill="url(#paint0_linear_84_145)"/>
</g>
<g filter="url(#filter2_d_84_145)">
<ellipse rx="11.2698" ry="24.5708" transform="matrix(0.999862 0.0166386 -0.014623 0.999893 58.4998 67.5792)" fill="url(#paint1_linear_84_145)"/>
</g>
<path d="M172.119 110.923C172.119 145.441 207.664 117.654 107.342 173.423C57.5133 159.641 26.9518 161.244 61.1674 135.923C25.623 110.923 71.5664 102.59 107.342 102.59C143.117 102.59 172.119 76.4053 172.119 110.923Z" fill="url(#paint2_linear_84_145)"/>
</g>
<g filter="url(#filter3_d_84_145)">
<ellipse cx="95.2669" cy="216.005" rx="75.4959" ry="73" fill="#E7DCFF"/>
<ellipse cx="96.8157" cy="219" rx="75.4959" ry="73" fill="#343434"/>
<path d="M170.636 176.97H129.4C143.063 201.73 142.98 215.622 129.4 240.384H170.636V176.97Z" fill="#C4C4C4"/>
<g filter="url(#filter4_d_84_145)">
<ellipse rx="26.5111" ry="6.63587" transform="matrix(0.972083 -0.234636 0.234029 0.97223 107.309 207.202)" fill="url(#paint3_linear_84_145)"/>
</g>
<g filter="url(#filter5_d_84_145)">
<ellipse rx="13.1346" ry="3.50552" transform="matrix(0.999861 0.0166747 -0.0145913 0.999894 39.6344 216.088)" fill="url(#paint4_linear_84_145)"/>
</g>
<path d="M163.767 242.176C163.767 282.725 228.341 245.658 107.093 311.172C46.8702 294.982 52.6018 320.758 29.6717 271.544C-13.2869 242.176 42.24 232.386 85.478 232.386C128.716 232.386 163.767 201.627 163.767 242.176Z" fill="url(#paint5_linear_84_145)"/>
<path d="M167.665 240.701C167.665 281.25 232.239 244.184 110.991 309.697C50.7681 293.507 56.4997 319.283 33.5697 270.069C-9.38897 240.701 46.1379 230.912 89.376 230.912C132.614 230.912 167.665 200.152 167.665 240.701Z" fill="url(#paint6_linear_84_145)"/>
<path d="M167.42 163.808C158.987 124.148 256.968 159.42 109.068 123.976C15.0189 141.673 37.1486 153.367 10.8453 171.808C17.2668 191.71 19.2313 205.824 19.2313 205.824C78.1403 157.157 246.031 215.41 167.42 163.808Z" fill="url(#paint7_linear_84_145)"/>
<path d="M167.871 168.873C159.437 129.213 257.419 164.485 109.518 129.04C15.4696 146.737 39.5639 153.374 13.2606 171.815C19.6821 191.717 19.682 210.889 19.682 210.889C78.591 162.222 246.482 220.475 167.871 168.873Z" fill="url(#paint8_linear_84_145)"/>
</g>
<g filter="url(#filter6_d_84_145)">
<ellipse cx="233.839" cy="142.144" rx="94.1368" ry="94" fill="#E7DCFF"/>
<ellipse cx="235.77" cy="146" rx="94.1368" ry="94" fill="#121212"/>
<path d="M223.372 110.816L175.263 129.248L175.348 156.386L226.718 146.266L223.372 110.816Z" fill="url(#paint9_linear_84_145)"/>
<ellipse cx="257.494" cy="124.308" rx="41.5167" ry="48.2051" fill="#323232"/>
<ellipse rx="24.1375" ry="42.8395" transform="matrix(0.997682 -0.068053 0.0682503 0.997668 162.005 139.303)" fill="#323232"/>
<ellipse cx="252.184" cy="125.754" rx="29.4479" ry="40.9744" fill="#ECF0FF"/>
<ellipse cx="248.322" cy="130.574" rx="25.5859" ry="36.1538" fill="black"/>
<ellipse rx="16.3783" ry="36.9531" transform="matrix(0.999348 -0.0361086 0.0362136 0.999344 157.623 139.717)" fill="#ECF0FF"/>
<ellipse rx="12.2594" ry="30.6429" transform="matrix(0.999348 -0.0361085 0.0362136 0.999344 157.891 145.732)" fill="black"/>
<path d="M295.149 115.631L332.804 135.877L330.39 162.872L289.356 150.766L295.149 115.631Z" fill="url(#paint10_linear_84_145)"/>
<path d="M329.907 205.292C329.907 257.207 381.562 215.415 235.77 299.292C163.357 278.564 118.944 280.974 168.667 242.892C117.013 205.292 183.78 192.759 235.77 192.759C287.76 192.759 329.907 153.378 329.907 205.292Z" fill="#332B62"/>
<path d="M255.608 192.729C262.005 196.012 266.971 200.013 271.333 205.614C273.809 208.792 274.114 213.616 275.545 217.29C276.731 220.336 276.239 224.622 276.172 227.848C276.054 233.506 273.394 239.276 270.93 244.266C268.988 248.201 266.543 251.938 264.882 255.965C263.343 259.698 260.974 263.029 259.595 266.814C258.559 269.659 258.967 273.059 258.229 276.007C257.323 279.624 256.818 283.204 256.818 286.945" stroke="#A646E0" stroke-width="3" stroke-linecap="round"/>
<path d="M291.538 184.447C298.075 186.34 305.229 192.811 307.637 199.319C309.541 204.462 307.338 211.797 305.017 216.434C303.139 220.183 300.558 223.366 298.651 227.069C296.575 231.1 293.251 234.958 293.035 239.697C292.927 242.076 292.126 244.859 292.744 247.258C293.438 249.952 294.716 252.275 295.947 254.735C297.214 257.264 299.849 260.193 302.396 261.465" stroke="#A646E0" stroke-width="3" stroke-linecap="round"/>
<path d="M218.963 196.696C218.15 202.38 216.207 207.879 214.415 213.32C212.808 218.196 211.762 223.209 210.021 228.048C208.888 231.195 207.588 234.389 205.936 237.308C205.661 237.794 205.007 239.17 206.245 238.675C208.531 237.762 211.435 237.97 213.841 237.97C217.797 237.97 223.276 236.951 227.066 238.212C230.196 239.254 232.802 243.234 233.668 246.216C234.941 250.591 234.861 255.158 234.861 259.665C234.861 263.361 232.988 266.491 231.372 269.719C229.162 274.133 230.894 280.312 232.498 284.557C233.807 288.021 235.797 291.223 236.671 294.853C236.935 295.95 237.643 297.193 237.643 298.293" stroke="#A646E0" stroke-width="3" stroke-linecap="round"/>
<path d="M178.582 199.368C172.951 203.758 168.248 209.023 163.886 214.622C162.306 216.651 161.601 219.231 161.601 221.796C161.601 225.342 162.896 230.094 165.011 233.027C166.806 235.517 169.907 237.495 172.359 239.295C175.836 241.848 179.057 246.039 180.341 250.183C181.192 252.928 180.744 255.377 179.144 257.773C176.535 261.682 173.107 265.796 169.093 268.317C164.914 270.942 158.891 273.715 153.763 273.715" stroke="#A646E0" stroke-width="3" stroke-linecap="round"/>
</g>
<defs>
<filter id="filter0_d_84_145" x="28" y="0.435913" width="160.233" height="186.987" filterUnits="userSpaceOnUse" color-interpolation-filters="sRGB">
<feFlood flood-opacity="0" result="BackgroundImageFix"/>
<feColorMatrix in="SourceAlpha" type="matrix" values="0 0 0 0 0 0 0 0 0 0 0 0 0 0 0 0 0 0 127 0" result="hardAlpha"/>
<feOffset dy="4"/>
<feGaussianBlur stdDeviation="5"/>
<feComposite in2="hardAlpha" operator="out"/>
<feColorMatrix type="matrix" values="0 0 0 0 0 0 0 0 0 0 0 0 0 0 0 0 0 0 0.25 0"/>
<feBlend mode="normal" in2="BackgroundImageFix" result="effect1_dropShadow_84_145"/>
<feBlend mode="normal" in="SourceGraphic" in2="effect1_dropShadow_84_145" result="shape"/>
</filter>
<filter id="filter1_d_84_145" x="94.3726" y="30.7949" width="48.5273" height="62.4872" filterUnits="userSpaceOnUse" color-interpolation-filters="sRGB">
<feFlood flood-opacity="0" result="BackgroundImageFix"/>
<feColorMatrix in="SourceAlpha" type="matrix" values="0 0 0 0 0 0 0 0 0 0 0 0 0 0 0 0 0 0 127 0" result="hardAlpha"/>
<feOffset dy="4"/>
<feGaussianBlur stdDeviation="2"/>
<feComposite in2="hardAlpha" operator="out"/>
<feColorMatrix type="matrix" values="0 0 0 0 0 0 0 0 0 0 0 0 0 0 0 0 0 0 0.25 0"/>
<feBlend mode="normal" in2="BackgroundImageFix" result="effect1_dropShadow_84_145"/>
<feBlend mode="normal" in="SourceGraphic" in2="effect1_dropShadow_84_145" result="shape"/>
</filter>
<filter id="filter2_d_84_145" x="43.2256" y="43.0103" width="30.5483" height="57.1379" filterUnits="userSpaceOnUse" color-interpolation-filters="sRGB">
<feFlood flood-opacity="0" result="BackgroundImageFix"/>
<feColorMatrix in="SourceAlpha" type="matrix" values="0 0 0 0 0 0 0 0 0 0 0 0 0 0 0 0 0 0 127 0" result="hardAlpha"/>
<feOffset dy="4"/>
<feGaussianBlur stdDeviation="2"/>
<feComposite in2="hardAlpha" operator="out"/>
<feColorMatrix type="matrix" values="0 0 0 0 0 0 0 0 0 0 0 0 0 0 0 0 0 0 0.25 0"/>
<feBlend mode="normal" in2="BackgroundImageFix" result="effect1_dropShadow_84_145"/>
<feBlend mode="normal" in="SourceGraphic" in2="effect1_dropShadow_84_145" result="shape"/>
</filter>
<filter id="filter3_d_84_145" x="0.845215" y="117.976" width="201.104" height="207.196" filterUnits="userSpaceOnUse" color-interpolation-filters="sRGB">
<feFlood flood-opacity="0" result="BackgroundImageFix"/>
<feColorMatrix in="SourceAlpha" type="matrix" values="0 0 0 0 0 0 0 0 0 0 0 0 0 0 0 0 0 0 127 0" result="hardAlpha"/>
<feOffset dy="4"/>
<feGaussianBlur stdDeviation="5"/>
<feComposite in2="hardAlpha" operator="out"/>
<feColorMatrix type="matrix" values="0 0 0 0 0 0 0 0 0 0 0 0 0 0 0 0 0 0 0.25 0"/>
<feBlend mode="normal" in2="BackgroundImageFix" result="effect1_dropShadow_84_145"/>
<feBlend mode="normal" in="SourceGraphic" in2="effect1_dropShadow_84_145" result="shape"/>
</filter>
<filter id="filter4_d_84_145" x="77.4902" y="198.24" width="59.6372" height="25.924" filterUnits="userSpaceOnUse" color-interpolation-filters="sRGB">
<feFlood flood-opacity="0" result="BackgroundImageFix"/>
<feColorMatrix in="SourceAlpha" type="matrix" values="0 0 0 0 0 0 0 0 0 0 0 0 0 0 0 0 0 0 127 0" result="hardAlpha"/>
<feOffset dy="4"/>
<feGaussianBlur stdDeviation="2"/>
<feComposite in2="hardAlpha" operator="out"/>
<feColorMatrix type="matrix" values="0 0 0 0 0 0 0 0 0 0 0 0 0 0 0 0 0 0 0.25 0"/>
<feBlend mode="normal" in2="BackgroundImageFix" result="effect1_dropShadow_84_145"/>
<feBlend mode="normal" in="SourceGraphic" in2="effect1_dropShadow_84_145" result="shape"/>
</filter>
<filter id="filter5_d_84_145" x="22.5015" y="212.576" width="34.2656" height="15.0243" filterUnits="userSpaceOnUse" color-interpolation-filters="sRGB">
<feFlood flood-opacity="0" result="BackgroundImageFix"/>
<feColorMatrix in="SourceAlpha" type="matrix" values="0 0 0 0 0 0 0 0 0 0 0 0 0 0 0 0 0 0 127 0" result="hardAlpha"/>
<feOffset dy="4"/>
<feGaussianBlur stdDeviation="2"/>
<feComposite in2="hardAlpha" operator="out"/>
<feColorMatrix type="matrix" values="0 0 0 0 0 0 0 0 0 0 0 0 0 0 0 0 0 0 0.25 0"/>
<feBlend mode="normal" in2="BackgroundImageFix" result="effect1_dropShadow_84_145"/>
<feBlend mode="normal" in="SourceGraphic" in2="effect1_dropShadow_84_145" result="shape"/>
</filter>
<filter id="filter6_d_84_145" x="125" y="42.1436" width="223.792" height="271.649" filterUnits="userSpaceOnUse" color-interpolation-filters="sRGB">
<feFlood flood-opacity="0" result="BackgroundImageFix"/>
<feColorMatrix in="SourceAlpha" type="matrix" values="0 0 0 0 0 0 0 0 0 0 0 0 0 0 0 0 0 0 127 0" result="hardAlpha"/>
<feOffset dy="4"/>
<feGaussianBlur stdDeviation="5"/>
<feComposite in2="hardAlpha" operator="out"/>
<feColorMatrix type="matrix" values="0 0 0 0 0 0 0 0 0 0 0 0 0 0 0 0 0 0 0.25 0"/>
<feBlend mode="normal" in2="BackgroundImageFix" result="effect1_dropShadow_84_145"/>
<feBlend mode="normal" in="SourceGraphic" in2="effect1_dropShadow_84_145" result="shape"/>
</filter>
<linearGradient id="paint0_linear_84_145" x1="118.636" y1="30.7949" x2="118.636" y2="85.2821" gradientUnits="userSpaceOnUse">
<stop stop-color="#FFC700"/>
<stop offset="0.71875" stop-color="#FF0000"/>
</linearGradient>
<linearGradient id="paint1_linear_84_145" x1="11.2698" y1="0" x2="11.2698" y2="49.1417" gradientUnits="userSpaceOnUse">
<stop stop-color="#FFE600"/>
<stop offset="1" stop-color="#FF0000"/>
</linearGradient>
<linearGradient id="paint2_linear_84_145" x1="112.431" y1="93.0775" x2="112.431" y2="173.423" gradientUnits="userSpaceOnUse">
<stop stop-color="#AE1414"/>
<stop offset="0.515625" stop-color="#970000"/>
<stop offset="1" stop-color="#B01414"/>
</linearGradient>
<linearGradient id="paint3_linear_84_145" x1="26.5111" y1="0" x2="26.5111" y2="13.2717" gradientUnits="userSpaceOnUse">
<stop stop-color="#FF0000"/>
<stop offset="0.71875" stop-color="#FF0099"/>
</linearGradient>
<linearGradient id="paint4_linear_84_145" x1="13.1346" y1="0" x2="13.1346" y2="7.01105" gradientUnits="userSpaceOnUse">
<stop stop-color="#FF00A8"/>
<stop offset="1" stop-color="#FF0000"/>
</linearGradient>
<linearGradient id="paint5_linear_84_145" x1="91.6291" y1="221.212" x2="91.6291" y2="315.596" gradientUnits="userSpaceOnUse">
<stop stop-color="#202020"/>
<stop offset="0.515625" stop-color="#7B88A9"/>
<stop offset="1" stop-color="#C3C5CC"/>
</linearGradient>
<linearGradient id="paint6_linear_84_145" x1="95.5271" y1="219.737" x2="95.5271" y2="314.121" gradientUnits="userSpaceOnUse">
<stop stop-color="#202020"/>
<stop offset="0.515625"/>
<stop offset="1" stop-color="#151515"/>
</linearGradient>
<linearGradient id="paint7_linear_84_145" x1="91.892" y1="201.347" x2="72.2096" y2="109.044" gradientUnits="userSpaceOnUse">
<stop stop-color="#333131"/>
<stop offset="0.515625" stop-color="#A58D8D"/>
<stop offset="1" stop-color="#D5F2FF"/>
</linearGradient>
<linearGradient id="paint8_linear_84_145" x1="92.3426" y1="206.412" x2="72.6603" y2="114.109" gradientUnits="userSpaceOnUse">
<stop stop-color="#202020"/>
<stop offset="0.515625"/>
<stop offset="1" stop-color="#151515"/>
</linearGradient>
<linearGradient id="paint9_linear_84_145" x1="197.496" y1="113.21" x2="201.269" y2="153.988" gradientUnits="userSpaceOnUse">
<stop stop-color="#333333"/>
<stop offset="1" stop-color="#1D1D1D"/>
</linearGradient>
<linearGradient id="paint10_linear_84_145" x1="316.052" y1="119.04" x2="309.46" y2="159.459" gradientUnits="userSpaceOnUse">
<stop stop-color="#333333"/>
<stop offset="1" stop-color="#1D1D1D"/>
</linearGradient>
</defs>
</svg>
