<svg width="250" height="214" viewBox="0 0 250 214" fill="none" xmlns="http://www.w3.org/2000/svg">
<g filter="url(#filter0_d_84_48)">
<path d="M30.4325 38.8452C32.0925 26.8671 42.4046 17.9945 54.4962 18.1406L203.916 19.946C219.425 20.1334 230.685 34.7617 226.898 49.8027L196.902 168.952C193.181 183.733 176.804 191.347 163.105 184.664L35.5437 122.437C26.2151 117.887 20.8691 107.855 22.2939 97.5733L30.4325 38.8452Z" fill="#B64040"/>
</g>
<g filter="url(#filter1_i_84_48)">
<path d="M28.8275 42.2062C30.2447 30.1149 40.4903 21 52.6643 21H185.541C201.764 21 213.314 36.7609 208.426 52.2299L179.451 143.946C175.336 156.973 161.191 163.942 148.354 159.268L38.3958 119.229C27.9429 115.423 21.4755 104.933 22.7705 93.8839L28.8275 42.2062Z" fill="#C04343"/>
</g>
<g filter="url(#filter2_d_84_48)">
<path d="M148.024 95.2368L94.0976 45.4737L74.4878 117.263L148.024 95.2368Z" fill="white"/>
</g>
<defs>
<filter id="filter0_d_84_48" x="0.065918" y="0.138809" width="249.57" height="212.968" filterUnits="userSpaceOnUse" color-interpolation-filters="sRGB">
<feFlood flood-opacity="0" result="BackgroundImageFix"/>
<feColorMatrix in="SourceAlpha" type="matrix" values="0 0 0 0 0 0 0 0 0 0 0 0 0 0 0 0 0 0 127 0" result="hardAlpha"/>
<feOffset dy="4"/>
<feGaussianBlur stdDeviation="11"/>
<feComposite in2="hardAlpha" operator="out"/>
<feColorMatrix type="matrix" values="0 0 0 0 0 0 0 0 0 0 0 0 0 0 0 0 0 0 0.25 0"/>
<feBlend mode="normal" in2="BackgroundImageFix" result="effect1_dropShadow_84_48"/>
<feBlend mode="normal" in="SourceGraphic" in2="effect1_dropShadow_84_48" result="shape"/>
</filter>
<filter id="filter1_i_84_48" x="22.6064" y="21" width="193.952" height="143.724" filterUnits="userSpaceOnUse" color-interpolation-filters="sRGB">
<feFlood flood-opacity="0" result="BackgroundImageFix"/>
<feBlend mode="normal" in="SourceGraphic" in2="BackgroundImageFix" result="shape"/>
<feColorMatrix in="SourceAlpha" type="matrix" values="0 0 0 0 0 0 0 0 0 0 0 0 0 0 0 0 0 0 127 0" result="hardAlpha"/>
<feOffset dx="7" dy="4"/>
<feGaussianBlur stdDeviation="8.5"/>
<feComposite in2="hardAlpha" operator="arithmetic" k2="-1" k3="1"/>
<feColorMatrix type="matrix" values="0 0 0 0 0 0 0 0 0 0 0 0 0 0 0 0 0 0 0.25 0"/>
<feBlend mode="normal" in2="shape" result="effect1_innerShadow_84_48"/>
</filter>
<filter id="filter2_d_84_48" x="61.4878" y="32.4737" width="99.5366" height="97.7895" filterUnits="userSpaceOnUse" color-interpolation-filters="sRGB">
<feFlood flood-opacity="0" result="BackgroundImageFix"/>
<feColorMatrix in="SourceAlpha" type="matrix" values="0 0 0 0 0 0 0 0 0 0 0 0 0 0 0 0 0 0 127 0" result="hardAlpha"/>
<feOffset/>
<feGaussianBlur stdDeviation="6.5"/>
<feComposite in2="hardAlpha" operator="out"/>
<feColorMatrix type="matrix" values="0 0 0 0 1 0 0 0 0 1 0 0 0 0 1 0 0 0 0.5 0"/>
<feBlend mode="normal" in2="BackgroundImageFix" result="effect1_dropShadow_84_48"/>
<feBlend mode="normal" in="SourceGraphic" in2="effect1_dropShadow_84_48" result="shape"/>
</filter>
</defs>
</svg>
